<svg width="225" height="154" viewBox="0 0 225 154" fill="none" xmlns="http://www.w3.org/2000/svg">
<g clip-path="url(#clip0_207_3)">
<rect width="225" height="154" fill="white"/>
<path d="M21.5 94H203.5V112H21.5V94Z" fill="#FFD121"/>
<path d="M40.2147 108C38.1067 108 36.3387 107.286 34.9107 105.858C33.4827 104.43 32.7687 102.662 32.7687 100.554V64.446C32.7687 62.338 33.4827 60.57 34.9107 59.142C36.3387 57.714 38.1067 57 40.2147 57H51.9447V33.744L61.5327 31.5V108H40.2147ZM46.0287 98.412H51.9447V66.588H46.0287C45.0767 66.588 44.2267 66.928 43.4787 67.608C42.7307 68.288 42.3567 69.172 42.3567 70.26V94.74C42.3567 95.692 42.7307 96.542 43.4787 97.29C44.2267 98.038 45.0767 98.412 46.0287 98.412ZM83.0316 43.332V33.744L92.6196 31.5V41.088L83.0316 43.332ZM83.2356 108V59.244L92.8236 57V108H83.2356ZM120.619 108C118.511 108 116.743 107.286 115.315 105.858C113.887 104.43 113.173 102.662 113.173 100.554V64.446C113.173 62.338 113.887 60.57 115.315 59.142C116.743 57.714 118.511 57 120.619 57H132.349V33.744L141.937 31.5V108H120.619ZM126.433 98.412H132.349V66.588H126.433C125.481 66.588 124.631 66.928 123.883 67.608C123.135 68.288 122.761 69.172 122.761 70.26V94.74C122.761 95.692 123.135 96.542 123.883 97.29C124.631 98.038 125.481 98.412 126.433 98.412ZM170.882 108C168.774 108 167.006 107.286 165.578 105.858C164.15 104.43 163.436 102.662 163.436 100.554V57H173.024V94.74C173.024 95.692 173.398 96.542 174.146 97.29C174.894 98.038 175.744 98.412 176.696 98.412H182.612V57H192.2V108H170.882Z" fill="#201E1E"/>
</g>
<defs>
<clipPath id="clip0_207_3">
<rect width="225" height="154" fill="white"/>
</clipPath>
</defs>
</svg>
